<mxfile host="Electron" agent="Mozilla/5.0 (Windows NT 10.0; Win64; x64) AppleWebKit/537.36 (KHTML, like Gecko) draw.io/28.0.4 Chrome/138.0.7204.97 Electron/37.2.1 Safari/537.36" version="28.0.4" pages="4">
  <diagram name="Overview" id="HbjDVGiRfv6HwdaZdueK">
    <mxGraphModel dx="2130" dy="783" grid="1" gridSize="10" guides="1" tooltips="1" connect="1" arrows="1" fold="1" page="1" pageScale="1" pageWidth="827" pageHeight="1169" math="0" shadow="0">
      <root>
        <mxCell id="0" />
        <mxCell id="1" parent="0" />
        <mxCell id="emE-kMTwk8978PieV5GB-78" style="edgeStyle=orthogonalEdgeStyle;rounded=0;orthogonalLoop=1;jettySize=auto;html=1;" edge="1" parent="1" source="emE-kMTwk8978PieV5GB-1" target="emE-kMTwk8978PieV5GB-2">
          <mxGeometry relative="1" as="geometry" />
        </mxCell>
        <mxCell id="emE-kMTwk8978PieV5GB-1" value="User&amp;nbsp;" style="shape=umlActor;verticalLabelPosition=bottom;verticalAlign=top;html=1;outlineConnect=0;" vertex="1" parent="1">
          <mxGeometry x="-236" y="1040" width="30" height="60" as="geometry" />
        </mxCell>
        <mxCell id="emE-kMTwk8978PieV5GB-76" style="edgeStyle=orthogonalEdgeStyle;rounded=0;orthogonalLoop=1;jettySize=auto;html=1;entryX=0;entryY=0.5;entryDx=0;entryDy=0;" edge="1" parent="1" source="emE-kMTwk8978PieV5GB-2" target="emE-kMTwk8978PieV5GB-8">
          <mxGeometry relative="1" as="geometry" />
        </mxCell>
        <mxCell id="emE-kMTwk8978PieV5GB-77" style="edgeStyle=orthogonalEdgeStyle;rounded=0;orthogonalLoop=1;jettySize=auto;html=1;entryX=1;entryY=0.5;entryDx=0;entryDy=0;" edge="1" parent="1" source="emE-kMTwk8978PieV5GB-2" target="emE-kMTwk8978PieV5GB-5">
          <mxGeometry relative="1" as="geometry" />
        </mxCell>
        <mxCell id="emE-kMTwk8978PieV5GB-2" value="calculator&lt;div&gt;finantial&lt;/div&gt;&lt;div&gt;supervisor&lt;/div&gt;" style="ellipse;whiteSpace=wrap;html=1;" vertex="1" parent="1">
          <mxGeometry x="-281" y="910" width="120" height="80" as="geometry" />
        </mxCell>
        <mxCell id="emE-kMTwk8978PieV5GB-86" style="edgeStyle=orthogonalEdgeStyle;rounded=0;orthogonalLoop=1;jettySize=auto;html=1;entryX=0.5;entryY=1;entryDx=0;entryDy=0;" edge="1" parent="1" source="emE-kMTwk8978PieV5GB-5" target="emE-kMTwk8978PieV5GB-15">
          <mxGeometry relative="1" as="geometry" />
        </mxCell>
        <mxCell id="emE-kMTwk8978PieV5GB-87" style="edgeStyle=orthogonalEdgeStyle;rounded=0;orthogonalLoop=1;jettySize=auto;html=1;" edge="1" parent="1" source="emE-kMTwk8978PieV5GB-5" target="emE-kMTwk8978PieV5GB-14">
          <mxGeometry relative="1" as="geometry" />
        </mxCell>
        <mxCell id="emE-kMTwk8978PieV5GB-91" style="edgeStyle=orthogonalEdgeStyle;rounded=0;orthogonalLoop=1;jettySize=auto;html=1;entryX=0.5;entryY=0;entryDx=0;entryDy=0;" edge="1" parent="1" source="emE-kMTwk8978PieV5GB-5" target="emE-kMTwk8978PieV5GB-16">
          <mxGeometry relative="1" as="geometry" />
        </mxCell>
        <mxCell id="emE-kMTwk8978PieV5GB-92" style="edgeStyle=orthogonalEdgeStyle;rounded=0;orthogonalLoop=1;jettySize=auto;html=1;" edge="1" parent="1" source="emE-kMTwk8978PieV5GB-5" target="emE-kMTwk8978PieV5GB-19">
          <mxGeometry relative="1" as="geometry" />
        </mxCell>
        <mxCell id="emE-kMTwk8978PieV5GB-5" value="basic&lt;div&gt;operation&lt;/div&gt;&lt;div&gt;supervisor&lt;/div&gt;" style="ellipse;whiteSpace=wrap;html=1;" vertex="1" parent="1">
          <mxGeometry x="-580" y="810" width="120" height="80" as="geometry" />
        </mxCell>
        <mxCell id="emE-kMTwk8978PieV5GB-80" style="edgeStyle=orthogonalEdgeStyle;rounded=0;orthogonalLoop=1;jettySize=auto;html=1;" edge="1" parent="1" source="emE-kMTwk8978PieV5GB-8" target="emE-kMTwk8978PieV5GB-25">
          <mxGeometry relative="1" as="geometry" />
        </mxCell>
        <mxCell id="emE-kMTwk8978PieV5GB-81" style="edgeStyle=orthogonalEdgeStyle;rounded=0;orthogonalLoop=1;jettySize=auto;html=1;entryX=0;entryY=0.5;entryDx=0;entryDy=0;" edge="1" parent="1" source="emE-kMTwk8978PieV5GB-8" target="emE-kMTwk8978PieV5GB-23">
          <mxGeometry relative="1" as="geometry" />
        </mxCell>
        <mxCell id="emE-kMTwk8978PieV5GB-82" style="edgeStyle=orthogonalEdgeStyle;rounded=0;orthogonalLoop=1;jettySize=auto;html=1;entryX=0;entryY=0.5;entryDx=0;entryDy=0;" edge="1" parent="1" source="emE-kMTwk8978PieV5GB-8" target="emE-kMTwk8978PieV5GB-27">
          <mxGeometry relative="1" as="geometry" />
        </mxCell>
        <mxCell id="emE-kMTwk8978PieV5GB-83" style="edgeStyle=orthogonalEdgeStyle;rounded=0;orthogonalLoop=1;jettySize=auto;html=1;entryX=0;entryY=0.5;entryDx=0;entryDy=0;" edge="1" parent="1" source="emE-kMTwk8978PieV5GB-8" target="emE-kMTwk8978PieV5GB-28">
          <mxGeometry relative="1" as="geometry" />
        </mxCell>
        <mxCell id="emE-kMTwk8978PieV5GB-84" style="edgeStyle=orthogonalEdgeStyle;rounded=0;orthogonalLoop=1;jettySize=auto;html=1;" edge="1" parent="1" source="emE-kMTwk8978PieV5GB-8" target="emE-kMTwk8978PieV5GB-29">
          <mxGeometry relative="1" as="geometry" />
        </mxCell>
        <mxCell id="emE-kMTwk8978PieV5GB-85" style="edgeStyle=orthogonalEdgeStyle;rounded=0;orthogonalLoop=1;jettySize=auto;html=1;entryX=0.5;entryY=0;entryDx=0;entryDy=0;" edge="1" parent="1" source="emE-kMTwk8978PieV5GB-8" target="emE-kMTwk8978PieV5GB-26">
          <mxGeometry relative="1" as="geometry" />
        </mxCell>
        <mxCell id="emE-kMTwk8978PieV5GB-8" value="finantial&lt;div&gt;operation&lt;/div&gt;&lt;div&gt;supervisor&lt;/div&gt;" style="ellipse;whiteSpace=wrap;html=1;" vertex="1" parent="1">
          <mxGeometry x="60" y="800" width="120" height="80" as="geometry" />
        </mxCell>
        <mxCell id="emE-kMTwk8978PieV5GB-52" style="edgeStyle=orthogonalEdgeStyle;rounded=0;orthogonalLoop=1;jettySize=auto;html=1;" edge="1" parent="1" source="emE-kMTwk8978PieV5GB-14" target="emE-kMTwk8978PieV5GB-31">
          <mxGeometry relative="1" as="geometry" />
        </mxCell>
        <mxCell id="emE-kMTwk8978PieV5GB-14" value="subst.&lt;div&gt;agent&lt;/div&gt;" style="ellipse;whiteSpace=wrap;html=1;aspect=fixed;fillColor=#A400FF;" vertex="1" parent="1">
          <mxGeometry x="-600" y="670" width="60" height="60" as="geometry" />
        </mxCell>
        <mxCell id="emE-kMTwk8978PieV5GB-51" style="edgeStyle=orthogonalEdgeStyle;rounded=0;orthogonalLoop=1;jettySize=auto;html=1;" edge="1" parent="1" source="emE-kMTwk8978PieV5GB-15" target="emE-kMTwk8978PieV5GB-30">
          <mxGeometry relative="1" as="geometry" />
        </mxCell>
        <mxCell id="emE-kMTwk8978PieV5GB-15" value="sum&lt;div&gt;agent&lt;/div&gt;" style="ellipse;whiteSpace=wrap;html=1;aspect=fixed;fillColor=#A400FF;" vertex="1" parent="1">
          <mxGeometry x="-500" y="670" width="60" height="60" as="geometry" />
        </mxCell>
        <mxCell id="emE-kMTwk8978PieV5GB-56" style="edgeStyle=orthogonalEdgeStyle;rounded=0;orthogonalLoop=1;jettySize=auto;html=1;" edge="1" parent="1" source="emE-kMTwk8978PieV5GB-16" target="emE-kMTwk8978PieV5GB-35">
          <mxGeometry relative="1" as="geometry" />
        </mxCell>
        <mxCell id="emE-kMTwk8978PieV5GB-16" value="multi.&lt;div&gt;agent&lt;/div&gt;" style="ellipse;whiteSpace=wrap;html=1;aspect=fixed;fillColor=#A400FF;" vertex="1" parent="1">
          <mxGeometry x="-600" y="970" width="60" height="60" as="geometry" />
        </mxCell>
        <mxCell id="emE-kMTwk8978PieV5GB-57" style="edgeStyle=orthogonalEdgeStyle;rounded=0;orthogonalLoop=1;jettySize=auto;html=1;" edge="1" parent="1" source="emE-kMTwk8978PieV5GB-19" target="emE-kMTwk8978PieV5GB-36">
          <mxGeometry relative="1" as="geometry" />
        </mxCell>
        <mxCell id="emE-kMTwk8978PieV5GB-19" value="div&lt;div&gt;agent&lt;/div&gt;" style="ellipse;whiteSpace=wrap;html=1;aspect=fixed;fillColor=#A400FF;" vertex="1" parent="1">
          <mxGeometry x="-500" y="970" width="60" height="60" as="geometry" />
        </mxCell>
        <mxCell id="emE-kMTwk8978PieV5GB-68" style="edgeStyle=orthogonalEdgeStyle;rounded=0;orthogonalLoop=1;jettySize=auto;html=1;" edge="1" parent="1" source="emE-kMTwk8978PieV5GB-23" target="emE-kMTwk8978PieV5GB-44">
          <mxGeometry relative="1" as="geometry" />
        </mxCell>
        <mxCell id="emE-kMTwk8978PieV5GB-23" value="discont&amp;nbsp;&lt;div&gt;agent&lt;/div&gt;" style="ellipse;whiteSpace=wrap;html=1;aspect=fixed;fillColor=#A400FF;" vertex="1" parent="1">
          <mxGeometry x="250" y="710" width="60" height="60" as="geometry" />
        </mxCell>
        <mxCell id="emE-kMTwk8978PieV5GB-63" style="edgeStyle=orthogonalEdgeStyle;rounded=0;orthogonalLoop=1;jettySize=auto;html=1;" edge="1" parent="1" source="emE-kMTwk8978PieV5GB-25" target="emE-kMTwk8978PieV5GB-39">
          <mxGeometry relative="1" as="geometry" />
        </mxCell>
        <mxCell id="emE-kMTwk8978PieV5GB-64" style="edgeStyle=orthogonalEdgeStyle;rounded=0;orthogonalLoop=1;jettySize=auto;html=1;" edge="1" parent="1" source="emE-kMTwk8978PieV5GB-25" target="emE-kMTwk8978PieV5GB-40">
          <mxGeometry relative="1" as="geometry">
            <Array as="points">
              <mxPoint x="177" y="560" />
              <mxPoint x="270" y="560" />
            </Array>
          </mxGeometry>
        </mxCell>
        <mxCell id="emE-kMTwk8978PieV5GB-65" style="edgeStyle=orthogonalEdgeStyle;rounded=0;orthogonalLoop=1;jettySize=auto;html=1;entryX=0.5;entryY=1;entryDx=0;entryDy=0;" edge="1" parent="1" source="emE-kMTwk8978PieV5GB-25" target="emE-kMTwk8978PieV5GB-41">
          <mxGeometry relative="1" as="geometry">
            <Array as="points">
              <mxPoint x="177" y="560" />
              <mxPoint x="360" y="560" />
            </Array>
          </mxGeometry>
        </mxCell>
        <mxCell id="emE-kMTwk8978PieV5GB-66" style="edgeStyle=orthogonalEdgeStyle;rounded=0;orthogonalLoop=1;jettySize=auto;html=1;entryX=0.5;entryY=1;entryDx=0;entryDy=0;" edge="1" parent="1" source="emE-kMTwk8978PieV5GB-25" target="emE-kMTwk8978PieV5GB-42">
          <mxGeometry relative="1" as="geometry">
            <Array as="points">
              <mxPoint x="177" y="560" />
              <mxPoint x="450" y="560" />
            </Array>
          </mxGeometry>
        </mxCell>
        <mxCell id="emE-kMTwk8978PieV5GB-67" style="edgeStyle=orthogonalEdgeStyle;rounded=0;orthogonalLoop=1;jettySize=auto;html=1;entryX=0.5;entryY=1;entryDx=0;entryDy=0;" edge="1" parent="1" source="emE-kMTwk8978PieV5GB-25" target="emE-kMTwk8978PieV5GB-43">
          <mxGeometry relative="1" as="geometry">
            <Array as="points">
              <mxPoint x="177" y="560" />
              <mxPoint x="540" y="560" />
            </Array>
          </mxGeometry>
        </mxCell>
        <mxCell id="emE-kMTwk8978PieV5GB-25" value="interest&lt;div&gt;agent&lt;/div&gt;" style="ellipse;whiteSpace=wrap;html=1;aspect=fixed;fillColor=#A400FF;" vertex="1" parent="1">
          <mxGeometry x="147" y="660" width="60" height="60" as="geometry" />
        </mxCell>
        <mxCell id="emE-kMTwk8978PieV5GB-58" style="edgeStyle=orthogonalEdgeStyle;rounded=0;orthogonalLoop=1;jettySize=auto;html=1;" edge="1" parent="1" source="emE-kMTwk8978PieV5GB-26" target="emE-kMTwk8978PieV5GB-38">
          <mxGeometry relative="1" as="geometry" />
        </mxCell>
        <mxCell id="emE-kMTwk8978PieV5GB-26" value="rentirement.&lt;div&gt;agent&lt;/div&gt;" style="ellipse;whiteSpace=wrap;html=1;aspect=fixed;fillColor=#A400FF;" vertex="1" parent="1">
          <mxGeometry x="47" y="960" width="60" height="60" as="geometry" />
        </mxCell>
        <mxCell id="emE-kMTwk8978PieV5GB-73" style="edgeStyle=orthogonalEdgeStyle;rounded=0;orthogonalLoop=1;jettySize=auto;html=1;" edge="1" parent="1" source="emE-kMTwk8978PieV5GB-27" target="emE-kMTwk8978PieV5GB-50">
          <mxGeometry relative="1" as="geometry" />
        </mxCell>
        <mxCell id="emE-kMTwk8978PieV5GB-75" style="edgeStyle=orthogonalEdgeStyle;rounded=0;orthogonalLoop=1;jettySize=auto;html=1;entryX=0;entryY=0.5;entryDx=0;entryDy=0;" edge="1" parent="1" source="emE-kMTwk8978PieV5GB-27" target="emE-kMTwk8978PieV5GB-45">
          <mxGeometry relative="1" as="geometry">
            <Array as="points">
              <mxPoint x="430" y="840" />
              <mxPoint x="430" y="747" />
            </Array>
          </mxGeometry>
        </mxCell>
        <mxCell id="emE-kMTwk8978PieV5GB-27" value="equiv.&lt;div&gt;agent&lt;/div&gt;" style="ellipse;whiteSpace=wrap;html=1;aspect=fixed;fillColor=#A400FF;" vertex="1" parent="1">
          <mxGeometry x="250" y="810" width="60" height="60" as="geometry" />
        </mxCell>
        <mxCell id="emE-kMTwk8978PieV5GB-69" style="edgeStyle=orthogonalEdgeStyle;rounded=0;orthogonalLoop=1;jettySize=auto;html=1;" edge="1" parent="1" source="emE-kMTwk8978PieV5GB-28" target="emE-kMTwk8978PieV5GB-48">
          <mxGeometry relative="1" as="geometry" />
        </mxCell>
        <mxCell id="emE-kMTwk8978PieV5GB-70" style="edgeStyle=orthogonalEdgeStyle;rounded=0;orthogonalLoop=1;jettySize=auto;html=1;" edge="1" parent="1" source="emE-kMTwk8978PieV5GB-28" target="emE-kMTwk8978PieV5GB-49">
          <mxGeometry relative="1" as="geometry" />
        </mxCell>
        <mxCell id="emE-kMTwk8978PieV5GB-71" style="edgeStyle=orthogonalEdgeStyle;rounded=0;orthogonalLoop=1;jettySize=auto;html=1;" edge="1" parent="1" source="emE-kMTwk8978PieV5GB-28" target="emE-kMTwk8978PieV5GB-46">
          <mxGeometry relative="1" as="geometry" />
        </mxCell>
        <mxCell id="emE-kMTwk8978PieV5GB-28" value="amort.&lt;div&gt;agent&lt;/div&gt;" style="ellipse;whiteSpace=wrap;html=1;aspect=fixed;fillColor=#A400FF;" vertex="1" parent="1">
          <mxGeometry x="250" y="910" width="60" height="60" as="geometry" />
        </mxCell>
        <mxCell id="emE-kMTwk8978PieV5GB-59" style="edgeStyle=orthogonalEdgeStyle;rounded=0;orthogonalLoop=1;jettySize=auto;html=1;" edge="1" parent="1" source="emE-kMTwk8978PieV5GB-29" target="emE-kMTwk8978PieV5GB-47">
          <mxGeometry relative="1" as="geometry" />
        </mxCell>
        <mxCell id="emE-kMTwk8978PieV5GB-29" value="savings&lt;div&gt;agent&lt;/div&gt;" style="ellipse;whiteSpace=wrap;html=1;aspect=fixed;fillColor=#A400FF;" vertex="1" parent="1">
          <mxGeometry x="147" y="960" width="60" height="60" as="geometry" />
        </mxCell>
        <mxCell id="emE-kMTwk8978PieV5GB-30" value="sum&lt;div&gt;tool&lt;/div&gt;" style="ellipse;whiteSpace=wrap;html=1;aspect=fixed;" vertex="1" parent="1">
          <mxGeometry x="-500" y="550" width="60" height="60" as="geometry" />
        </mxCell>
        <mxCell id="emE-kMTwk8978PieV5GB-31" value="subst&lt;div&gt;tool&lt;/div&gt;" style="ellipse;whiteSpace=wrap;html=1;aspect=fixed;" vertex="1" parent="1">
          <mxGeometry x="-600" y="550" width="60" height="60" as="geometry" />
        </mxCell>
        <mxCell id="emE-kMTwk8978PieV5GB-35" value="multi&lt;div&gt;tool&lt;/div&gt;" style="ellipse;whiteSpace=wrap;html=1;aspect=fixed;" vertex="1" parent="1">
          <mxGeometry x="-600" y="1080" width="60" height="60" as="geometry" />
        </mxCell>
        <mxCell id="emE-kMTwk8978PieV5GB-36" value="div&lt;div&gt;tool&lt;/div&gt;" style="ellipse;whiteSpace=wrap;html=1;aspect=fixed;" vertex="1" parent="1">
          <mxGeometry x="-500" y="1080" width="60" height="60" as="geometry" />
        </mxCell>
        <mxCell id="emE-kMTwk8978PieV5GB-38" value="rentirement&lt;div&gt;tool&lt;/div&gt;" style="ellipse;whiteSpace=wrap;html=1;aspect=fixed;" vertex="1" parent="1">
          <mxGeometry x="48.5" y="1070" width="57" height="57" as="geometry" />
        </mxCell>
        <mxCell id="emE-kMTwk8978PieV5GB-39" value="ant_serie&lt;div&gt;tool&lt;/div&gt;" style="ellipse;whiteSpace=wrap;html=1;aspect=fixed;" vertex="1" parent="1">
          <mxGeometry x="147" y="460" width="60" height="60" as="geometry" />
        </mxCell>
        <mxCell id="emE-kMTwk8978PieV5GB-40" value="def_serie&lt;div&gt;tool&lt;/div&gt;" style="ellipse;whiteSpace=wrap;html=1;aspect=fixed;" vertex="1" parent="1">
          <mxGeometry x="240" y="460" width="60" height="60" as="geometry" />
        </mxCell>
        <mxCell id="emE-kMTwk8978PieV5GB-41" value="perp.&lt;div&gt;tool&lt;/div&gt;" style="ellipse;whiteSpace=wrap;html=1;aspect=fixed;" vertex="1" parent="1">
          <mxGeometry x="330" y="460" width="60" height="60" as="geometry" />
        </mxCell>
        <mxCell id="emE-kMTwk8978PieV5GB-42" value="post.&lt;div&gt;serie&lt;/div&gt;" style="ellipse;whiteSpace=wrap;html=1;aspect=fixed;" vertex="1" parent="1">
          <mxGeometry x="420" y="460" width="60" height="60" as="geometry" />
        </mxCell>
        <mxCell id="emE-kMTwk8978PieV5GB-43" value="simple_int&lt;div&gt;tool&lt;/div&gt;" style="ellipse;whiteSpace=wrap;html=1;aspect=fixed;" vertex="1" parent="1">
          <mxGeometry x="510" y="460" width="60" height="60" as="geometry" />
        </mxCell>
        <mxCell id="emE-kMTwk8978PieV5GB-44" value="discont&lt;div&gt;tool&lt;/div&gt;" style="ellipse;whiteSpace=wrap;html=1;aspect=fixed;" vertex="1" parent="1">
          <mxGeometry x="360" y="630" width="60" height="60" as="geometry" />
        </mxCell>
        <mxCell id="emE-kMTwk8978PieV5GB-45" value="capital&lt;div&gt;tool&lt;/div&gt;" style="ellipse;whiteSpace=wrap;html=1;aspect=fixed;" vertex="1" parent="1">
          <mxGeometry x="490" y="717" width="60" height="60" as="geometry" />
        </mxCell>
        <mxCell id="emE-kMTwk8978PieV5GB-46" value="american&lt;div&gt;tool&lt;/div&gt;" style="ellipse;whiteSpace=wrap;html=1;aspect=fixed;" vertex="1" parent="1">
          <mxGeometry x="440" y="1067" width="60" height="60" as="geometry" />
        </mxCell>
        <mxCell id="emE-kMTwk8978PieV5GB-47" value="savings&lt;div&gt;tool&lt;/div&gt;" style="ellipse;whiteSpace=wrap;html=1;aspect=fixed;" vertex="1" parent="1">
          <mxGeometry x="147" y="1067" width="60" height="60" as="geometry" />
        </mxCell>
        <mxCell id="emE-kMTwk8978PieV5GB-48" value="const.&lt;div&gt;tool&lt;/div&gt;" style="ellipse;whiteSpace=wrap;html=1;aspect=fixed;" vertex="1" parent="1">
          <mxGeometry x="250" y="1067" width="60" height="60" as="geometry" />
        </mxCell>
        <mxCell id="emE-kMTwk8978PieV5GB-49" value="french&lt;div&gt;tool&lt;/div&gt;" style="ellipse;whiteSpace=wrap;html=1;aspect=fixed;" vertex="1" parent="1">
          <mxGeometry x="340" y="1067" width="60" height="60" as="geometry" />
        </mxCell>
        <mxCell id="emE-kMTwk8978PieV5GB-50" value="rate&lt;div&gt;tool&lt;/div&gt;" style="ellipse;whiteSpace=wrap;html=1;aspect=fixed;" vertex="1" parent="1">
          <mxGeometry x="490" y="810" width="60" height="60" as="geometry" />
        </mxCell>
      </root>
    </mxGraphModel>
  </diagram>
  <diagram name="MVP1" id="S12ZiFt4BmyjhJJEcttJ">
    <mxGraphModel dx="1985" dy="696" grid="1" gridSize="10" guides="1" tooltips="1" connect="1" arrows="1" fold="1" page="1" pageScale="1" pageWidth="827" pageHeight="1169" math="0" shadow="0">
      <root>
        <mxCell id="SeX1YdyslEpUt5tCLa1J-0" />
        <mxCell id="SeX1YdyslEpUt5tCLa1J-1" parent="SeX1YdyslEpUt5tCLa1J-0" />
        <mxCell id="SeX1YdyslEpUt5tCLa1J-2" style="edgeStyle=orthogonalEdgeStyle;rounded=0;orthogonalLoop=1;jettySize=auto;html=1;" edge="1" parent="SeX1YdyslEpUt5tCLa1J-1" source="SeX1YdyslEpUt5tCLa1J-3" target="SeX1YdyslEpUt5tCLa1J-6">
          <mxGeometry relative="1" as="geometry" />
        </mxCell>
        <mxCell id="SeX1YdyslEpUt5tCLa1J-3" value="User&amp;nbsp;" style="shape=umlActor;verticalLabelPosition=bottom;verticalAlign=top;html=1;outlineConnect=0;" vertex="1" parent="SeX1YdyslEpUt5tCLa1J-1">
          <mxGeometry x="-286" y="1050" width="30" height="60" as="geometry" />
        </mxCell>
        <mxCell id="SeX1YdyslEpUt5tCLa1J-5" style="edgeStyle=orthogonalEdgeStyle;rounded=0;orthogonalLoop=1;jettySize=auto;html=1;entryX=1;entryY=0.5;entryDx=0;entryDy=0;" edge="1" parent="SeX1YdyslEpUt5tCLa1J-1" source="SeX1YdyslEpUt5tCLa1J-6" target="SeX1YdyslEpUt5tCLa1J-11">
          <mxGeometry relative="1" as="geometry" />
        </mxCell>
        <mxCell id="SeX1YdyslEpUt5tCLa1J-6" value="calculator&lt;div&gt;finantial&lt;/div&gt;&lt;div&gt;supervisor&lt;/div&gt;" style="ellipse;whiteSpace=wrap;html=1;" vertex="1" parent="SeX1YdyslEpUt5tCLa1J-1">
          <mxGeometry x="-331" y="920" width="120" height="80" as="geometry" />
        </mxCell>
        <mxCell id="SeX1YdyslEpUt5tCLa1J-7" style="edgeStyle=orthogonalEdgeStyle;rounded=0;orthogonalLoop=1;jettySize=auto;html=1;entryX=0.5;entryY=1;entryDx=0;entryDy=0;" edge="1" parent="SeX1YdyslEpUt5tCLa1J-1" source="SeX1YdyslEpUt5tCLa1J-11" target="SeX1YdyslEpUt5tCLa1J-22">
          <mxGeometry relative="1" as="geometry" />
        </mxCell>
        <mxCell id="SeX1YdyslEpUt5tCLa1J-8" style="edgeStyle=orthogonalEdgeStyle;rounded=0;orthogonalLoop=1;jettySize=auto;html=1;" edge="1" parent="SeX1YdyslEpUt5tCLa1J-1" source="SeX1YdyslEpUt5tCLa1J-11" target="SeX1YdyslEpUt5tCLa1J-20">
          <mxGeometry relative="1" as="geometry" />
        </mxCell>
        <mxCell id="SeX1YdyslEpUt5tCLa1J-9" style="edgeStyle=orthogonalEdgeStyle;rounded=0;orthogonalLoop=1;jettySize=auto;html=1;entryX=0.5;entryY=0;entryDx=0;entryDy=0;" edge="1" parent="SeX1YdyslEpUt5tCLa1J-1" source="SeX1YdyslEpUt5tCLa1J-11" target="SeX1YdyslEpUt5tCLa1J-24">
          <mxGeometry relative="1" as="geometry" />
        </mxCell>
        <mxCell id="SeX1YdyslEpUt5tCLa1J-10" style="edgeStyle=orthogonalEdgeStyle;rounded=0;orthogonalLoop=1;jettySize=auto;html=1;" edge="1" parent="SeX1YdyslEpUt5tCLa1J-1" source="SeX1YdyslEpUt5tCLa1J-11" target="SeX1YdyslEpUt5tCLa1J-26">
          <mxGeometry relative="1" as="geometry" />
        </mxCell>
        <mxCell id="SeX1YdyslEpUt5tCLa1J-11" value="basic&lt;div&gt;operation&lt;/div&gt;&lt;div&gt;supervisor&lt;/div&gt;" style="ellipse;whiteSpace=wrap;html=1;" vertex="1" parent="SeX1YdyslEpUt5tCLa1J-1">
          <mxGeometry x="-630" y="820" width="120" height="80" as="geometry" />
        </mxCell>
        <mxCell id="SeX1YdyslEpUt5tCLa1J-19" style="edgeStyle=orthogonalEdgeStyle;rounded=0;orthogonalLoop=1;jettySize=auto;html=1;" edge="1" parent="SeX1YdyslEpUt5tCLa1J-1" source="SeX1YdyslEpUt5tCLa1J-20" target="SeX1YdyslEpUt5tCLa1J-47">
          <mxGeometry relative="1" as="geometry" />
        </mxCell>
        <mxCell id="SeX1YdyslEpUt5tCLa1J-20" value="subst.&lt;div&gt;agent&lt;/div&gt;" style="ellipse;whiteSpace=wrap;html=1;aspect=fixed;fillColor=#A400FF;" vertex="1" parent="SeX1YdyslEpUt5tCLa1J-1">
          <mxGeometry x="-650" y="680" width="60" height="60" as="geometry" />
        </mxCell>
        <mxCell id="SeX1YdyslEpUt5tCLa1J-21" style="edgeStyle=orthogonalEdgeStyle;rounded=0;orthogonalLoop=1;jettySize=auto;html=1;" edge="1" parent="SeX1YdyslEpUt5tCLa1J-1" source="SeX1YdyslEpUt5tCLa1J-22" target="SeX1YdyslEpUt5tCLa1J-46">
          <mxGeometry relative="1" as="geometry" />
        </mxCell>
        <mxCell id="SeX1YdyslEpUt5tCLa1J-22" value="sum&lt;div&gt;agent&lt;/div&gt;" style="ellipse;whiteSpace=wrap;html=1;aspect=fixed;fillColor=#A400FF;" vertex="1" parent="SeX1YdyslEpUt5tCLa1J-1">
          <mxGeometry x="-550" y="680" width="60" height="60" as="geometry" />
        </mxCell>
        <mxCell id="SeX1YdyslEpUt5tCLa1J-23" style="edgeStyle=orthogonalEdgeStyle;rounded=0;orthogonalLoop=1;jettySize=auto;html=1;" edge="1" parent="SeX1YdyslEpUt5tCLa1J-1" source="SeX1YdyslEpUt5tCLa1J-24" target="SeX1YdyslEpUt5tCLa1J-48">
          <mxGeometry relative="1" as="geometry" />
        </mxCell>
        <mxCell id="SeX1YdyslEpUt5tCLa1J-24" value="multi.&lt;div&gt;agent&lt;/div&gt;" style="ellipse;whiteSpace=wrap;html=1;aspect=fixed;fillColor=#A400FF;" vertex="1" parent="SeX1YdyslEpUt5tCLa1J-1">
          <mxGeometry x="-650" y="980" width="60" height="60" as="geometry" />
        </mxCell>
        <mxCell id="SeX1YdyslEpUt5tCLa1J-25" style="edgeStyle=orthogonalEdgeStyle;rounded=0;orthogonalLoop=1;jettySize=auto;html=1;" edge="1" parent="SeX1YdyslEpUt5tCLa1J-1" source="SeX1YdyslEpUt5tCLa1J-26" target="SeX1YdyslEpUt5tCLa1J-49">
          <mxGeometry relative="1" as="geometry" />
        </mxCell>
        <mxCell id="SeX1YdyslEpUt5tCLa1J-26" value="div&lt;div&gt;agent&lt;/div&gt;" style="ellipse;whiteSpace=wrap;html=1;aspect=fixed;fillColor=#A400FF;" vertex="1" parent="SeX1YdyslEpUt5tCLa1J-1">
          <mxGeometry x="-550" y="980" width="60" height="60" as="geometry" />
        </mxCell>
        <mxCell id="SeX1YdyslEpUt5tCLa1J-46" value="sum&lt;div&gt;tool&lt;/div&gt;" style="ellipse;whiteSpace=wrap;html=1;aspect=fixed;" vertex="1" parent="SeX1YdyslEpUt5tCLa1J-1">
          <mxGeometry x="-550" y="560" width="60" height="60" as="geometry" />
        </mxCell>
        <mxCell id="SeX1YdyslEpUt5tCLa1J-47" value="subst&lt;div&gt;tool&lt;/div&gt;" style="ellipse;whiteSpace=wrap;html=1;aspect=fixed;" vertex="1" parent="SeX1YdyslEpUt5tCLa1J-1">
          <mxGeometry x="-650" y="560" width="60" height="60" as="geometry" />
        </mxCell>
        <mxCell id="SeX1YdyslEpUt5tCLa1J-48" value="multi&lt;div&gt;tool&lt;/div&gt;" style="ellipse;whiteSpace=wrap;html=1;aspect=fixed;" vertex="1" parent="SeX1YdyslEpUt5tCLa1J-1">
          <mxGeometry x="-650" y="1090" width="60" height="60" as="geometry" />
        </mxCell>
        <mxCell id="SeX1YdyslEpUt5tCLa1J-49" value="div&lt;div&gt;tool&lt;/div&gt;" style="ellipse;whiteSpace=wrap;html=1;aspect=fixed;" vertex="1" parent="SeX1YdyslEpUt5tCLa1J-1">
          <mxGeometry x="-550" y="1090" width="60" height="60" as="geometry" />
        </mxCell>
      </root>
    </mxGraphModel>
  </diagram>
  <diagram name="MVP2" id="gNBXrYR30MdsCsakEQyJ">
    <mxGraphModel dx="2053" dy="736" grid="1" gridSize="10" guides="1" tooltips="1" connect="1" arrows="1" fold="1" page="1" pageScale="1" pageWidth="827" pageHeight="1169" math="0" shadow="0">
      <root>
        <mxCell id="_hVKVczHlPaq8AXAP9b6-0" />
        <mxCell id="_hVKVczHlPaq8AXAP9b6-1" parent="_hVKVczHlPaq8AXAP9b6-0" />
        <mxCell id="_hVKVczHlPaq8AXAP9b6-2" style="edgeStyle=orthogonalEdgeStyle;rounded=0;orthogonalLoop=1;jettySize=auto;html=1;" edge="1" parent="_hVKVczHlPaq8AXAP9b6-1" source="_hVKVczHlPaq8AXAP9b6-3" target="_hVKVczHlPaq8AXAP9b6-6">
          <mxGeometry relative="1" as="geometry" />
        </mxCell>
        <mxCell id="_hVKVczHlPaq8AXAP9b6-3" value="User&amp;nbsp;" style="shape=umlActor;verticalLabelPosition=bottom;verticalAlign=top;html=1;outlineConnect=0;" vertex="1" parent="_hVKVczHlPaq8AXAP9b6-1">
          <mxGeometry x="-775" y="1070" width="30" height="60" as="geometry" />
        </mxCell>
        <mxCell id="_hVKVczHlPaq8AXAP9b6-4" style="edgeStyle=orthogonalEdgeStyle;rounded=0;orthogonalLoop=1;jettySize=auto;html=1;entryX=0;entryY=0.5;entryDx=0;entryDy=0;" edge="1" parent="_hVKVczHlPaq8AXAP9b6-1" source="_hVKVczHlPaq8AXAP9b6-6" target="_hVKVczHlPaq8AXAP9b6-18">
          <mxGeometry relative="1" as="geometry" />
        </mxCell>
        <mxCell id="_hVKVczHlPaq8AXAP9b6-6" value="calculator&lt;div&gt;finantial&lt;/div&gt;&lt;div&gt;supervisor&lt;/div&gt;" style="ellipse;whiteSpace=wrap;html=1;" vertex="1" parent="_hVKVczHlPaq8AXAP9b6-1">
          <mxGeometry x="-820" y="940" width="120" height="80" as="geometry" />
        </mxCell>
        <mxCell id="_hVKVczHlPaq8AXAP9b6-13" style="edgeStyle=orthogonalEdgeStyle;rounded=0;orthogonalLoop=1;jettySize=auto;html=1;entryX=0;entryY=0.5;entryDx=0;entryDy=0;" edge="1" parent="_hVKVczHlPaq8AXAP9b6-1" source="_hVKVczHlPaq8AXAP9b6-18" target="_hVKVczHlPaq8AXAP9b6-28">
          <mxGeometry relative="1" as="geometry" />
        </mxCell>
        <mxCell id="_hVKVczHlPaq8AXAP9b6-16" style="edgeStyle=orthogonalEdgeStyle;rounded=0;orthogonalLoop=1;jettySize=auto;html=1;" edge="1" parent="_hVKVczHlPaq8AXAP9b6-1" source="_hVKVczHlPaq8AXAP9b6-18" target="_hVKVczHlPaq8AXAP9b6-45">
          <mxGeometry relative="1" as="geometry" />
        </mxCell>
        <mxCell id="_hVKVczHlPaq8AXAP9b6-17" style="edgeStyle=orthogonalEdgeStyle;rounded=0;orthogonalLoop=1;jettySize=auto;html=1;entryX=0.5;entryY=0;entryDx=0;entryDy=0;" edge="1" parent="_hVKVczHlPaq8AXAP9b6-1" source="_hVKVczHlPaq8AXAP9b6-18" target="_hVKVczHlPaq8AXAP9b6-36">
          <mxGeometry relative="1" as="geometry" />
        </mxCell>
        <mxCell id="_hVKVczHlPaq8AXAP9b6-18" value="finantial&lt;div&gt;operation&lt;/div&gt;&lt;div&gt;supervisor&lt;/div&gt;" style="ellipse;whiteSpace=wrap;html=1;" vertex="1" parent="_hVKVczHlPaq8AXAP9b6-1">
          <mxGeometry x="-479" y="830" width="120" height="80" as="geometry" />
        </mxCell>
        <mxCell id="_hVKVczHlPaq8AXAP9b6-27" style="edgeStyle=orthogonalEdgeStyle;rounded=0;orthogonalLoop=1;jettySize=auto;html=1;" edge="1" parent="_hVKVczHlPaq8AXAP9b6-1" source="_hVKVczHlPaq8AXAP9b6-28" target="_hVKVczHlPaq8AXAP9b6-56">
          <mxGeometry relative="1" as="geometry" />
        </mxCell>
        <mxCell id="_hVKVczHlPaq8AXAP9b6-28" value="discont&amp;nbsp;&lt;div&gt;agent&lt;/div&gt;" style="ellipse;whiteSpace=wrap;html=1;aspect=fixed;fillColor=#A400FF;" vertex="1" parent="_hVKVczHlPaq8AXAP9b6-1">
          <mxGeometry x="-289" y="740" width="60" height="60" as="geometry" />
        </mxCell>
        <mxCell id="_hVKVczHlPaq8AXAP9b6-35" style="edgeStyle=orthogonalEdgeStyle;rounded=0;orthogonalLoop=1;jettySize=auto;html=1;" edge="1" parent="_hVKVczHlPaq8AXAP9b6-1" source="_hVKVczHlPaq8AXAP9b6-36" target="_hVKVczHlPaq8AXAP9b6-50">
          <mxGeometry relative="1" as="geometry" />
        </mxCell>
        <mxCell id="_hVKVczHlPaq8AXAP9b6-36" value="rentirement.&lt;div&gt;agent&lt;/div&gt;" style="ellipse;whiteSpace=wrap;html=1;aspect=fixed;fillColor=#A400FF;" vertex="1" parent="_hVKVczHlPaq8AXAP9b6-1">
          <mxGeometry x="-492" y="990" width="60" height="60" as="geometry" />
        </mxCell>
        <mxCell id="_hVKVczHlPaq8AXAP9b6-44" style="edgeStyle=orthogonalEdgeStyle;rounded=0;orthogonalLoop=1;jettySize=auto;html=1;" edge="1" parent="_hVKVczHlPaq8AXAP9b6-1" source="_hVKVczHlPaq8AXAP9b6-45" target="_hVKVczHlPaq8AXAP9b6-59">
          <mxGeometry relative="1" as="geometry" />
        </mxCell>
        <mxCell id="_hVKVczHlPaq8AXAP9b6-45" value="savings&lt;div&gt;agent&lt;/div&gt;" style="ellipse;whiteSpace=wrap;html=1;aspect=fixed;fillColor=#A400FF;" vertex="1" parent="_hVKVczHlPaq8AXAP9b6-1">
          <mxGeometry x="-392" y="990" width="60" height="60" as="geometry" />
        </mxCell>
        <mxCell id="_hVKVczHlPaq8AXAP9b6-50" value="rentirement&lt;div&gt;tool&lt;/div&gt;" style="ellipse;whiteSpace=wrap;html=1;aspect=fixed;" vertex="1" parent="_hVKVczHlPaq8AXAP9b6-1">
          <mxGeometry x="-490.5" y="1100" width="57" height="57" as="geometry" />
        </mxCell>
        <mxCell id="_hVKVczHlPaq8AXAP9b6-56" value="discont&lt;div&gt;tool&lt;/div&gt;" style="ellipse;whiteSpace=wrap;html=1;aspect=fixed;" vertex="1" parent="_hVKVczHlPaq8AXAP9b6-1">
          <mxGeometry x="-179" y="660" width="60" height="60" as="geometry" />
        </mxCell>
        <mxCell id="_hVKVczHlPaq8AXAP9b6-59" value="savings&lt;div&gt;tool&lt;/div&gt;" style="ellipse;whiteSpace=wrap;html=1;aspect=fixed;" vertex="1" parent="_hVKVczHlPaq8AXAP9b6-1">
          <mxGeometry x="-392" y="1097" width="60" height="60" as="geometry" />
        </mxCell>
      </root>
    </mxGraphModel>
  </diagram>
  <diagram name="MVP3" id="6vleTxRhIzEI37v37mvU">
    <mxGraphModel dx="2564" dy="1043" grid="1" gridSize="10" guides="1" tooltips="1" connect="1" arrows="1" fold="1" page="1" pageScale="1" pageWidth="827" pageHeight="1169" math="0" shadow="0">
      <root>
        <mxCell id="_kgJTho6y1yxCe0P3i9A-0" />
        <mxCell id="_kgJTho6y1yxCe0P3i9A-1" parent="_kgJTho6y1yxCe0P3i9A-0" />
        <mxCell id="_kgJTho6y1yxCe0P3i9A-2" style="edgeStyle=orthogonalEdgeStyle;rounded=0;orthogonalLoop=1;jettySize=auto;html=1;" edge="1" parent="_kgJTho6y1yxCe0P3i9A-1" source="_kgJTho6y1yxCe0P3i9A-3" target="_kgJTho6y1yxCe0P3i9A-6">
          <mxGeometry relative="1" as="geometry" />
        </mxCell>
        <mxCell id="_kgJTho6y1yxCe0P3i9A-3" value="User&amp;nbsp;" style="shape=umlActor;verticalLabelPosition=bottom;verticalAlign=top;html=1;outlineConnect=0;" vertex="1" parent="_kgJTho6y1yxCe0P3i9A-1">
          <mxGeometry x="-780" y="1080" width="30" height="60" as="geometry" />
        </mxCell>
        <mxCell id="_kgJTho6y1yxCe0P3i9A-4" style="edgeStyle=orthogonalEdgeStyle;rounded=0;orthogonalLoop=1;jettySize=auto;html=1;entryX=0;entryY=0.5;entryDx=0;entryDy=0;" edge="1" parent="_kgJTho6y1yxCe0P3i9A-1" source="_kgJTho6y1yxCe0P3i9A-6" target="_kgJTho6y1yxCe0P3i9A-18">
          <mxGeometry relative="1" as="geometry" />
        </mxCell>
        <mxCell id="_kgJTho6y1yxCe0P3i9A-6" value="calculator&lt;div&gt;finantial&lt;/div&gt;&lt;div&gt;supervisor&lt;/div&gt;" style="ellipse;whiteSpace=wrap;html=1;" vertex="1" parent="_kgJTho6y1yxCe0P3i9A-1">
          <mxGeometry x="-825" y="950" width="120" height="80" as="geometry" />
        </mxCell>
        <mxCell id="_kgJTho6y1yxCe0P3i9A-12" style="edgeStyle=orthogonalEdgeStyle;rounded=0;orthogonalLoop=1;jettySize=auto;html=1;" edge="1" parent="_kgJTho6y1yxCe0P3i9A-1" source="_kgJTho6y1yxCe0P3i9A-18" target="_kgJTho6y1yxCe0P3i9A-34">
          <mxGeometry relative="1" as="geometry" />
        </mxCell>
        <mxCell id="_kgJTho6y1yxCe0P3i9A-14" style="edgeStyle=orthogonalEdgeStyle;rounded=0;orthogonalLoop=1;jettySize=auto;html=1;entryX=0;entryY=0.5;entryDx=0;entryDy=0;" edge="1" parent="_kgJTho6y1yxCe0P3i9A-1" source="_kgJTho6y1yxCe0P3i9A-18" target="_kgJTho6y1yxCe0P3i9A-39">
          <mxGeometry relative="1" as="geometry" />
        </mxCell>
        <mxCell id="_kgJTho6y1yxCe0P3i9A-15" style="edgeStyle=orthogonalEdgeStyle;rounded=0;orthogonalLoop=1;jettySize=auto;html=1;entryX=0;entryY=0.5;entryDx=0;entryDy=0;" edge="1" parent="_kgJTho6y1yxCe0P3i9A-1" source="_kgJTho6y1yxCe0P3i9A-18" target="_kgJTho6y1yxCe0P3i9A-43">
          <mxGeometry relative="1" as="geometry" />
        </mxCell>
        <mxCell id="_kgJTho6y1yxCe0P3i9A-18" value="finantial&lt;div&gt;operation&lt;/div&gt;&lt;div&gt;supervisor&lt;/div&gt;" style="ellipse;whiteSpace=wrap;html=1;" vertex="1" parent="_kgJTho6y1yxCe0P3i9A-1">
          <mxGeometry x="-525" y="840" width="120" height="80" as="geometry" />
        </mxCell>
        <mxCell id="_kgJTho6y1yxCe0P3i9A-29" style="edgeStyle=orthogonalEdgeStyle;rounded=0;orthogonalLoop=1;jettySize=auto;html=1;" edge="1" parent="_kgJTho6y1yxCe0P3i9A-1" source="_kgJTho6y1yxCe0P3i9A-34" target="_kgJTho6y1yxCe0P3i9A-51">
          <mxGeometry relative="1" as="geometry" />
        </mxCell>
        <mxCell id="_kgJTho6y1yxCe0P3i9A-30" style="edgeStyle=orthogonalEdgeStyle;rounded=0;orthogonalLoop=1;jettySize=auto;html=1;" edge="1" parent="_kgJTho6y1yxCe0P3i9A-1" source="_kgJTho6y1yxCe0P3i9A-34" target="_kgJTho6y1yxCe0P3i9A-52">
          <mxGeometry relative="1" as="geometry">
            <Array as="points">
              <mxPoint x="-408" y="600" />
              <mxPoint x="-315" y="600" />
            </Array>
          </mxGeometry>
        </mxCell>
        <mxCell id="_kgJTho6y1yxCe0P3i9A-31" style="edgeStyle=orthogonalEdgeStyle;rounded=0;orthogonalLoop=1;jettySize=auto;html=1;entryX=0.5;entryY=1;entryDx=0;entryDy=0;" edge="1" parent="_kgJTho6y1yxCe0P3i9A-1" source="_kgJTho6y1yxCe0P3i9A-34" target="_kgJTho6y1yxCe0P3i9A-53">
          <mxGeometry relative="1" as="geometry">
            <Array as="points">
              <mxPoint x="-408" y="600" />
              <mxPoint x="-225" y="600" />
            </Array>
          </mxGeometry>
        </mxCell>
        <mxCell id="_kgJTho6y1yxCe0P3i9A-32" style="edgeStyle=orthogonalEdgeStyle;rounded=0;orthogonalLoop=1;jettySize=auto;html=1;entryX=0.5;entryY=1;entryDx=0;entryDy=0;" edge="1" parent="_kgJTho6y1yxCe0P3i9A-1" source="_kgJTho6y1yxCe0P3i9A-34" target="_kgJTho6y1yxCe0P3i9A-54">
          <mxGeometry relative="1" as="geometry">
            <Array as="points">
              <mxPoint x="-408" y="600" />
              <mxPoint x="-135" y="600" />
            </Array>
          </mxGeometry>
        </mxCell>
        <mxCell id="_kgJTho6y1yxCe0P3i9A-33" style="edgeStyle=orthogonalEdgeStyle;rounded=0;orthogonalLoop=1;jettySize=auto;html=1;entryX=0.5;entryY=1;entryDx=0;entryDy=0;" edge="1" parent="_kgJTho6y1yxCe0P3i9A-1" source="_kgJTho6y1yxCe0P3i9A-34" target="_kgJTho6y1yxCe0P3i9A-55">
          <mxGeometry relative="1" as="geometry">
            <Array as="points">
              <mxPoint x="-408" y="600" />
              <mxPoint x="-45" y="600" />
            </Array>
          </mxGeometry>
        </mxCell>
        <mxCell id="_kgJTho6y1yxCe0P3i9A-34" value="interest&lt;div&gt;agent&lt;/div&gt;" style="ellipse;whiteSpace=wrap;html=1;aspect=fixed;fillColor=#A400FF;" vertex="1" parent="_kgJTho6y1yxCe0P3i9A-1">
          <mxGeometry x="-438" y="700" width="60" height="60" as="geometry" />
        </mxCell>
        <mxCell id="_kgJTho6y1yxCe0P3i9A-37" style="edgeStyle=orthogonalEdgeStyle;rounded=0;orthogonalLoop=1;jettySize=auto;html=1;" edge="1" parent="_kgJTho6y1yxCe0P3i9A-1" source="_kgJTho6y1yxCe0P3i9A-39" target="_kgJTho6y1yxCe0P3i9A-62">
          <mxGeometry relative="1" as="geometry" />
        </mxCell>
        <mxCell id="_kgJTho6y1yxCe0P3i9A-38" style="edgeStyle=orthogonalEdgeStyle;rounded=0;orthogonalLoop=1;jettySize=auto;html=1;entryX=0;entryY=0.5;entryDx=0;entryDy=0;" edge="1" parent="_kgJTho6y1yxCe0P3i9A-1" source="_kgJTho6y1yxCe0P3i9A-39" target="_kgJTho6y1yxCe0P3i9A-57">
          <mxGeometry relative="1" as="geometry">
            <Array as="points">
              <mxPoint x="-155" y="880" />
              <mxPoint x="-155" y="787" />
            </Array>
          </mxGeometry>
        </mxCell>
        <mxCell id="_kgJTho6y1yxCe0P3i9A-39" value="equiv.&lt;div&gt;agent&lt;/div&gt;" style="ellipse;whiteSpace=wrap;html=1;aspect=fixed;fillColor=#A400FF;" vertex="1" parent="_kgJTho6y1yxCe0P3i9A-1">
          <mxGeometry x="-335" y="850" width="60" height="60" as="geometry" />
        </mxCell>
        <mxCell id="_kgJTho6y1yxCe0P3i9A-40" style="edgeStyle=orthogonalEdgeStyle;rounded=0;orthogonalLoop=1;jettySize=auto;html=1;" edge="1" parent="_kgJTho6y1yxCe0P3i9A-1" source="_kgJTho6y1yxCe0P3i9A-43" target="_kgJTho6y1yxCe0P3i9A-60">
          <mxGeometry relative="1" as="geometry" />
        </mxCell>
        <mxCell id="_kgJTho6y1yxCe0P3i9A-41" style="edgeStyle=orthogonalEdgeStyle;rounded=0;orthogonalLoop=1;jettySize=auto;html=1;" edge="1" parent="_kgJTho6y1yxCe0P3i9A-1" source="_kgJTho6y1yxCe0P3i9A-43" target="_kgJTho6y1yxCe0P3i9A-61">
          <mxGeometry relative="1" as="geometry" />
        </mxCell>
        <mxCell id="_kgJTho6y1yxCe0P3i9A-42" style="edgeStyle=orthogonalEdgeStyle;rounded=0;orthogonalLoop=1;jettySize=auto;html=1;" edge="1" parent="_kgJTho6y1yxCe0P3i9A-1" source="_kgJTho6y1yxCe0P3i9A-43" target="_kgJTho6y1yxCe0P3i9A-58">
          <mxGeometry relative="1" as="geometry" />
        </mxCell>
        <mxCell id="_kgJTho6y1yxCe0P3i9A-43" value="amort.&lt;div&gt;agent&lt;/div&gt;" style="ellipse;whiteSpace=wrap;html=1;aspect=fixed;fillColor=#A400FF;" vertex="1" parent="_kgJTho6y1yxCe0P3i9A-1">
          <mxGeometry x="-335" y="950" width="60" height="60" as="geometry" />
        </mxCell>
        <mxCell id="_kgJTho6y1yxCe0P3i9A-51" value="ant_serie&lt;div&gt;tool&lt;/div&gt;" style="ellipse;whiteSpace=wrap;html=1;aspect=fixed;" vertex="1" parent="_kgJTho6y1yxCe0P3i9A-1">
          <mxGeometry x="-438" y="500" width="60" height="60" as="geometry" />
        </mxCell>
        <mxCell id="_kgJTho6y1yxCe0P3i9A-52" value="def_serie&lt;div&gt;tool&lt;/div&gt;" style="ellipse;whiteSpace=wrap;html=1;aspect=fixed;" vertex="1" parent="_kgJTho6y1yxCe0P3i9A-1">
          <mxGeometry x="-345" y="500" width="60" height="60" as="geometry" />
        </mxCell>
        <mxCell id="_kgJTho6y1yxCe0P3i9A-53" value="perp.&lt;div&gt;tool&lt;/div&gt;" style="ellipse;whiteSpace=wrap;html=1;aspect=fixed;" vertex="1" parent="_kgJTho6y1yxCe0P3i9A-1">
          <mxGeometry x="-255" y="500" width="60" height="60" as="geometry" />
        </mxCell>
        <mxCell id="_kgJTho6y1yxCe0P3i9A-54" value="post.&lt;div&gt;serie&lt;/div&gt;" style="ellipse;whiteSpace=wrap;html=1;aspect=fixed;" vertex="1" parent="_kgJTho6y1yxCe0P3i9A-1">
          <mxGeometry x="-165" y="500" width="60" height="60" as="geometry" />
        </mxCell>
        <mxCell id="_kgJTho6y1yxCe0P3i9A-55" value="simple_int&lt;div&gt;tool&lt;/div&gt;" style="ellipse;whiteSpace=wrap;html=1;aspect=fixed;" vertex="1" parent="_kgJTho6y1yxCe0P3i9A-1">
          <mxGeometry x="-75" y="500" width="60" height="60" as="geometry" />
        </mxCell>
        <mxCell id="_kgJTho6y1yxCe0P3i9A-57" value="capital&lt;div&gt;tool&lt;/div&gt;" style="ellipse;whiteSpace=wrap;html=1;aspect=fixed;" vertex="1" parent="_kgJTho6y1yxCe0P3i9A-1">
          <mxGeometry x="-95" y="757" width="60" height="60" as="geometry" />
        </mxCell>
        <mxCell id="_kgJTho6y1yxCe0P3i9A-58" value="american&lt;div&gt;tool&lt;/div&gt;" style="ellipse;whiteSpace=wrap;html=1;aspect=fixed;" vertex="1" parent="_kgJTho6y1yxCe0P3i9A-1">
          <mxGeometry x="-145" y="1107" width="60" height="60" as="geometry" />
        </mxCell>
        <mxCell id="_kgJTho6y1yxCe0P3i9A-60" value="const.&lt;div&gt;tool&lt;/div&gt;" style="ellipse;whiteSpace=wrap;html=1;aspect=fixed;" vertex="1" parent="_kgJTho6y1yxCe0P3i9A-1">
          <mxGeometry x="-335" y="1107" width="60" height="60" as="geometry" />
        </mxCell>
        <mxCell id="_kgJTho6y1yxCe0P3i9A-61" value="french&lt;div&gt;tool&lt;/div&gt;" style="ellipse;whiteSpace=wrap;html=1;aspect=fixed;" vertex="1" parent="_kgJTho6y1yxCe0P3i9A-1">
          <mxGeometry x="-245" y="1107" width="60" height="60" as="geometry" />
        </mxCell>
        <mxCell id="_kgJTho6y1yxCe0P3i9A-62" value="rate&lt;div&gt;tool&lt;/div&gt;" style="ellipse;whiteSpace=wrap;html=1;aspect=fixed;" vertex="1" parent="_kgJTho6y1yxCe0P3i9A-1">
          <mxGeometry x="-95" y="850" width="60" height="60" as="geometry" />
        </mxCell>
      </root>
    </mxGraphModel>
  </diagram>
</mxfile>
